<svg width="27" height="27" viewBox="0 0 27 27" fill="none" xmlns="http://www.w3.org/2000/svg">
<rect x="0.562872" y="1.48255" width="24.9698" height="24.9698" rx="12.4849" fill="white" stroke="black" stroke-width="0.99879"/>
<path d="M6.05664 12.9685C5.50502 12.9685 5.05785 13.4157 5.05785 13.9673C5.05785 14.5189 5.50502 14.9661 6.05664 14.9661V12.9685ZM20.746 14.6735C21.136 14.2835 21.136 13.6511 20.746 13.261L14.3897 6.90477C13.9996 6.51472 13.3672 6.51472 12.9772 6.90477C12.5871 7.29482 12.5871 7.92722 12.9772 8.31728L18.6272 13.9673L12.9772 19.6173C12.5871 20.0073 12.5871 20.6397 12.9772 21.0298C13.3672 21.4198 13.9996 21.4198 14.3897 21.0298L20.746 14.6735ZM6.05664 13.9673V14.9661H20.0397V13.9673V12.9685H6.05664V13.9673Z" fill="black"/>
</svg>
