<svg width="26" height="26" viewBox="0 0 26 26" fill="none" xmlns="http://www.w3.org/2000/svg">
<rect x="0.5" y="0.5" width="25" height="25" rx="12.5" fill="white" stroke="black"/>
<path d="M6 12C5.44772 12 5 12.4477 5 13C5 13.5523 5.44772 14 6 14V12ZM20.7071 13.7071C21.0976 13.3166 21.0976 12.6834 20.7071 12.2929L14.3431 5.92893C13.9526 5.53841 13.3195 5.53841 12.9289 5.92893C12.5384 6.31946 12.5384 6.95262 12.9289 7.34315L18.5858 13L12.9289 18.6569C12.5384 19.0474 12.5384 19.6805 12.9289 20.0711C13.3195 20.4616 13.9526 20.4616 14.3431 20.0711L20.7071 13.7071ZM6 13V14H20V13V12H6V13Z" fill="black"/>
</svg>
