<svg width="55" height="55" viewBox="0 0 55 55" fill="none" xmlns="http://www.w3.org/2000/svg">
<rect x="53.9423" y="53.9423" width="52.8846" height="52.8846" rx="26.4423" transform="rotate(180 53.9423 53.9423)" fill="white" stroke="black" stroke-width="2.11538"/>
<path d="M42.3066 29.6159C43.4749 29.6159 44.422 28.6688 44.422 27.5005C44.422 26.3322 43.4749 25.3851 42.3066 25.3851V29.6159ZM11.1955 26.0047C10.3693 26.8308 10.3693 28.1702 11.1955 28.9963L24.6577 42.4585C25.4838 43.2846 26.8232 43.2846 27.6493 42.4585C28.4754 41.6324 28.4754 40.293 27.6493 39.4669L15.6829 27.5005L27.6493 15.5341C28.4754 14.708 28.4754 13.3686 27.6493 12.5425C26.8232 11.7164 25.4838 11.7164 24.6577 12.5425L11.1955 26.0047ZM42.3066 27.5005V25.3851H12.6913V27.5005V29.6159H42.3066V27.5005Z" fill="black"/>
</svg>
