<svg width="22" height="22" viewBox="0 0 22 22" fill="none" xmlns="http://www.w3.org/2000/svg">
<path d="M21.8304 10.9145C21.8729 16.8639 16.9845 21.7706 10.9779 21.8079C4.95979 21.8453 0.0368715 16.9875 0.000197769 10.9763C-0.0357569 4.98454 4.83538 0.040491 10.8146 0.000248736C16.8931 -0.0399935 21.7866 4.80776 21.8297 10.9145H21.8304ZM20.2182 9.16326C19.3258 4.36366 14.7208 0.705925 9.34266 1.58407C7.40471 1.90097 5.72346 2.76187 4.31476 4.13586C2.94489 5.47247 1.62535 7.95384 1.66346 9.10289C6.04418 2.76906 15.6736 2.64546 20.219 9.16326H20.2182ZM1.70876 13.0165C1.70733 13.0265 1.6951 13.0545 1.70085 13.0783C2.14022 14.8518 2.97581 16.4104 4.30685 17.6695C6.68058 19.9158 9.49511 20.748 12.7195 20.2033C13.0287 20.1508 13.2804 20.0373 13.4566 19.7599C13.6062 19.5242 13.7967 19.3151 13.9564 19.0858C14.4907 18.3176 14.9149 17.4927 15.2184 16.6102C9.91866 18.345 5.38046 17.3159 1.70948 13.0165H1.70876ZM14.1491 6.00496C15.762 7.87048 16.6947 10.0206 16.8852 12.4696C17.0758 14.9258 16.4818 17.2031 15.1558 19.3517C15.2615 19.3086 15.304 19.295 15.3428 19.2741C17.9646 17.8268 19.5919 15.6387 20.2089 12.7103C20.2901 12.3259 20.4002 11.9436 20.2132 11.5275C19.3431 9.59514 18.0185 8.06594 16.2222 6.94562C15.5779 6.5432 14.8969 6.21552 14.1491 6.00568V6.00496ZM12.7267 6.19971C12.4369 5.95825 12.1824 5.7398 11.9192 5.53212C11.8645 5.489 11.7782 5.46888 11.7063 5.46672C10.7895 5.44157 9.87479 5.4387 8.96873 5.63129C5.83421 6.29744 3.50218 8.03863 1.95398 10.8391C1.8684 10.9943 1.87488 11.1114 1.9626 11.263C2.45015 12.1053 3.05347 12.8555 3.75315 13.5288C3.90919 13.679 4.07962 13.8134 4.26011 13.9693C5.69398 9.85312 8.49198 7.27475 12.7267 6.19971ZM15.7958 13.4088C15.7584 12.9216 15.739 12.517 15.6951 12.1153C15.5218 10.5416 14.9689 9.10505 14.0721 7.8058C13.6069 7.13174 13.8003 7.17845 12.8784 7.35811C12.6548 7.40194 12.6656 7.4853 12.7059 7.67142C12.8741 8.4504 13.0877 9.22793 13.1582 10.0177C13.2934 11.5368 13.1287 13.0387 12.639 14.4939C12.4966 14.9157 12.4901 14.9337 12.8964 15.1313C14.4116 15.8693 13.9664 15.8363 15.373 15.2334C15.391 15.2255 15.4161 15.2247 15.4262 15.2118C15.5003 15.1126 15.6204 15.0178 15.6347 14.9086C15.7066 14.3847 15.7505 13.8572 15.7958 13.4095V13.4088ZM7.27886 10.7794C6.3275 11.9335 5.68535 13.181 5.30639 14.5636C5.28769 14.6312 5.36751 14.7641 5.43799 14.8094C5.68176 14.9646 5.93704 15.1011 6.19519 15.2312C7.91023 16.095 9.73745 16.3702 11.6366 16.2588C11.8609 16.2459 12.0838 16.2006 12.3873 16.1589C11.2296 15.5208 10.2387 14.7957 9.38078 13.8967C8.51642 12.9906 7.82178 11.968 7.27886 10.7801V10.7794ZM11.5215 14.2575C12.2269 12.0636 12.2392 9.9293 11.5611 7.79933C11.4999 7.79215 11.4784 7.78209 11.4618 7.78856C10.2624 8.23338 9.19309 8.89306 8.25827 9.7633C8.19787 9.81935 8.18492 10.0012 8.22879 10.0824C8.57108 10.7277 8.89683 11.3866 9.29736 11.9953C9.87264 12.8713 10.6234 13.5928 11.5208 14.2575H11.5215Z" fill="black"/>
</svg>
