<svg viewBox="0 0 29 36" fill="none" xmlns="http://www.w3.org/2000/svg">
<path fill-rule="evenodd" clip-rule="evenodd" d="M14.1221 0C10.1457 0 6.92212 3.22355 6.92212 7.2V8.22857H5.18554C3.01764 8.22857 1.22169 9.91078 1.08005 12.074L0.0156981 28.3296C-0.256203 32.4823 3.03876 36 7.20031 36H21.0439C25.2055 36 28.5004 32.4822 28.2285 28.3296L27.1642 12.074C27.0225 9.91077 25.2266 8.22857 23.0587 8.22857H21.3221V7.2C21.3221 3.22355 18.0986 0 14.1221 0ZM18.2364 11.3143V12.8571C18.2364 13.7092 18.9272 14.4 19.7793 14.4C20.6314 14.4 21.3221 13.7092 21.3221 12.8571V11.3143H23.0587C23.6007 11.3143 24.0497 11.7348 24.0851 12.2757L25.1494 28.5312C25.3048 30.9041 23.422 32.9143 21.0439 32.9143H7.20031C4.82228 32.9143 2.93945 30.9041 3.09482 28.5312L4.15917 12.2757C4.19458 11.7348 4.64357 11.3143 5.18554 11.3143H6.92212V12.8571C6.92212 13.7092 7.61288 14.4 8.46497 14.4C9.31707 14.4 10.0078 13.7092 10.0078 12.8571V11.3143H18.2364ZM18.2364 8.22857V7.2C18.2364 4.92774 16.3944 3.08571 14.1221 3.08571C11.8499 3.08571 10.0078 4.92774 10.0078 7.2V8.22857H18.2364Z"/>
</svg>
