<svg width="23" height="23" viewBox="0 0 23 23" fill="none" xmlns="http://www.w3.org/2000/svg">
<path d="M11.5 17.7429C10.7741 17.7429 10.1857 17.1544 10.1857 16.4286V10.5143C10.1857 9.78843 10.7741 9.2 11.5 9.2C12.2259 9.2 12.8143 9.78843 12.8143 10.5143V16.4286C12.8143 17.1544 12.2259 17.7429 11.5 17.7429Z" fill="black"/>
<path d="M10.1857 6.57143C10.1857 7.29729 10.7741 7.88571 11.5 7.88571C12.2259 7.88571 12.8143 7.29729 12.8143 6.57143C12.8143 5.84557 12.2259 5.25714 11.5 5.25714C10.7741 5.25714 10.1857 5.84557 10.1857 6.57143Z" fill="black"/>
<path fill-rule="evenodd" clip-rule="evenodd" d="M11.5 23C17.8513 23 23 17.8513 23 11.5C23 5.14873 17.8513 0 11.5 0C5.14873 0 0 5.14873 0 11.5C0 17.8513 5.14873 23 11.5 23ZM11.5 21.0286C16.7625 21.0286 21.0286 16.7625 21.0286 11.5C21.0286 6.23752 16.7625 1.97143 11.5 1.97143C6.23752 1.97143 1.97143 6.23752 1.97143 11.5C1.97143 16.7625 6.23752 21.0286 11.5 21.0286Z" fill="black"/>
</svg>
