<svg viewBox="0 0 57 57" fill="none" xmlns="http://www.w3.org/2000/svg">
<circle cx="28.2994" cy="28.4448" r="28.2994" fill="white"/>
<path d="M20.7354 30.08V30.83C20.7354 30.8388 20.7362 30.8469 20.7363 30.8544C20.763 30.8733 20.7984 30.8991 20.8369 30.9286L25.6572 34.5927L26.5537 35.2772C27.4325 35.9588 28.3121 36.6873 29.1064 37.5243C30.4803 36.0353 32.1245 34.8845 33.5928 33.743H33.5938L34.4248 33.0897C35.2533 32.432 36.0743 31.7616 36.9033 31.0887L37.0205 30.9891C37.0391 30.9707 37.0403 30.9661 37.0371 30.9716C37.0232 30.995 37.0479 30.9792 37.0479 30.8339V30.0839H44.9033V30.8339C44.9033 31.2779 44.905 32.1642 44.1387 32.7274L44.1377 32.7264C43.3392 33.3142 42.5158 33.9347 41.6572 34.4989V34.4999C40.0296 35.5688 38.4571 36.5668 36.8662 37.5975L35.2666 38.6425C34.2435 39.3183 33.2965 40.0645 32.4814 40.9403L32.4805 40.9413C32.4151 41.0114 32.3512 41.086 32.2861 41.1659L32.085 41.4218C31.9541 41.5924 31.8929 41.781 31.8984 42.0565L31.9131 43.3358C31.9177 44.638 31.8965 45.9626 31.8965 46.8827V48.0321H24.8057V46.244C24.8057 45.8167 24.8082 45.0101 24.8105 44.1581C24.8129 43.3049 24.8154 42.405 24.8154 41.7899V41.7675L24.8164 41.744C24.8248 41.6067 24.7663 41.4577 24.5371 41.1229V41.1239C24.1567 40.5694 23.6854 40.0842 23.1543 39.6132L22.6045 39.1444C21.3055 38.0731 19.9173 37.1288 18.4922 36.1835L17.0576 35.2333C16.5329 34.8845 16.0101 34.5334 15.4893 34.1805L13.9297 33.12C13.8081 33.0371 13.6993 32.9482 13.6133 32.8778C13.52 32.8015 13.454 32.7468 13.3857 32.6971L13.3848 32.6962C12.6398 32.1528 12.5928 31.3318 12.5928 30.83V30.08H20.7354Z" fill="#E8FFC3" stroke="black" stroke-width="1.5"/>
<ellipse cx="29.0583" cy="19.9232" rx="9.92349" ry="9.91683" fill="#FF6F6F"/>
<path d="M39.972 19.9145C40.0145 25.8639 35.1261 30.7706 29.1195 30.8079C23.1014 30.8453 18.1785 25.9875 18.1418 19.9763C18.1058 13.9845 22.977 9.04049 28.9563 9.00025C35.0347 8.96001 39.9282 13.8078 39.9713 19.9145H39.972ZM38.3598 18.1633C37.4674 13.3637 32.8624 9.70592 27.4843 10.5841C25.5463 10.901 23.8651 11.7619 22.4564 13.1359C21.0865 14.4725 19.767 16.9538 19.8051 18.1029C24.1858 11.7691 33.8152 11.6455 38.3606 18.1633H38.3598ZM19.8504 22.0165C19.8489 22.0265 19.8367 22.0545 19.8425 22.0783C20.2818 23.8518 21.1174 25.4104 22.4485 26.6695C24.8222 28.9158 27.6367 29.748 30.8611 29.2033C31.1703 29.1508 31.422 29.0373 31.5982 28.7599C31.7478 28.5242 31.9383 28.3151 32.098 28.0858C32.6323 27.3176 33.0565 26.4927 33.36 25.6102C28.0603 27.345 23.5221 26.3159 19.8511 22.0165H19.8504ZM32.2907 15.005C33.9036 16.8705 34.8363 19.0206 35.0268 21.4696C35.2174 23.9258 34.6234 26.2031 33.2974 28.3517C33.4031 28.3086 33.4456 28.295 33.4844 28.2741C36.1062 26.8268 37.7335 24.6387 38.3505 21.7103C38.4318 21.3259 38.5418 20.9436 38.3548 20.5275C37.4847 18.5951 36.1601 17.0659 34.3638 15.9456C33.7195 15.5432 33.0385 15.2155 32.2907 15.0057V15.005ZM30.8683 15.1997C30.5785 14.9583 30.324 14.7398 30.0608 14.5321C30.0061 14.489 29.9198 14.4689 29.8479 14.4667C28.9311 14.4416 28.0164 14.4387 27.1103 14.6313C23.9758 15.2974 21.6438 17.0386 20.0956 19.8391C20.01 19.9943 20.0165 20.1114 20.1042 20.263C20.5918 21.1053 21.1951 21.8555 21.8947 22.5288C22.0508 22.679 22.2212 22.8134 22.4017 22.9693C23.8356 18.8531 26.6336 16.2747 30.8683 15.1997ZM33.9374 22.4088C33.9 21.9216 33.8806 21.517 33.8367 21.1153C33.6634 19.5416 33.1105 18.1051 32.2137 16.8058C31.7485 16.1317 31.9419 16.1785 31.02 16.3581C30.7964 16.4019 30.8072 16.4853 30.8475 16.6714C31.0157 17.4504 31.2293 18.2279 31.2998 19.0177C31.435 20.5368 31.2703 22.0387 30.7806 23.4939C30.6382 23.9157 30.6317 23.9337 31.038 24.1313C32.5532 24.8693 32.108 24.8363 33.5146 24.2334C33.5326 24.2255 33.5577 24.2247 33.5678 24.2118C33.6419 24.1126 33.762 24.0178 33.7763 23.9086C33.8482 23.3847 33.8921 22.8572 33.9374 22.4095V22.4088ZM25.4205 19.7794C24.4691 20.9335 23.827 22.181 23.448 23.5636C23.4293 23.6312 23.5091 23.7641 23.5796 23.8094C23.8234 23.9646 24.0786 24.1011 24.3368 24.2312C26.0518 25.095 27.879 25.3702 29.7782 25.2588C30.0025 25.2459 30.2255 25.2006 30.5289 25.1589C29.3712 24.5208 28.3803 23.7957 27.5224 22.8967C26.658 21.9906 25.9634 20.968 25.4205 19.7801V19.7794ZM29.6631 23.2575C30.3686 21.0636 30.3808 18.9293 29.7027 16.7993C29.6415 16.7921 29.62 16.7821 29.6034 16.7886C28.404 17.2334 27.3347 17.8931 26.3999 18.7633C26.3395 18.8194 26.3265 19.0012 26.3704 19.0824C26.7127 19.7277 27.0384 20.3866 27.439 20.9953C28.0142 21.8713 28.765 22.5928 29.6624 23.2575H29.6631Z" fill="black"/>
</svg>
